<svg xmlns="http://www.w3.org/2000/svg" viewBox="0 0 58.6102 59" fill="none">
  <path d="M43.6797 0H14.9304C6.68458 0 0 6.72904 0 15.0297V43.9703C0 52.271 6.68458 59 14.9304 59H43.6797C51.9256 59 58.6102 52.271 58.6102 43.9703V15.0297C58.6102 6.72904 51.9256 0 43.6797 0Z" fill="url(#paint0_linear_0_343)"/>
  <path fill-rule="evenodd" clip-rule="evenodd" d="M39.3666 10.8362C41.5877 13.3828 43.0463 16.7031 43.6535 20.0214C44.295 23.5326 44.0287 27.2306 42.5964 30.5205C41.3678 33.3432 39.4393 35.638 36.8308 37.2606C32.8768 39.7219 27.9706 40.2661 23.4356 39.6467C15.923 38.6212 11.4787 29.8381 11.7047 22.8401C11.8217 19.1969 13.0644 15.6776 15.3016 12.804C18.4769 8.72622 23.4659 7.46715 28.4164 7.73115C29.6854 7.79816 29.6228 6.31367 28.4951 6.25274C23.0503 5.96234 17.6276 7.42044 14.1457 11.8922C11.7148 15.0135 10.3652 18.8354 10.2381 22.7934C9.9859 30.5672 14.9526 39.9818 23.2419 41.115C28.1219 41.7811 33.3569 41.1658 37.6075 38.5217C40.4681 36.7407 42.5984 34.2144 43.946 31.1175C45.4974 27.5555 45.798 23.559 45.102 19.7553C44.4463 16.1731 42.8708 12.6111 40.4742 9.86143C39.7277 9.00647 38.5314 9.87767 39.3686 10.8382L39.3666 10.8362Z" fill="white"/>
  <path fill-rule="evenodd" clip-rule="evenodd" d="M31.035 7.94641C32.431 8.43786 34.6198 9.25423 35.5881 10.4382C35.7475 10.6331 35.8847 10.8443 35.9997 11.0677C36.7925 12.6091 36.506 14.6053 35.7354 16.0939C35.2331 17.0646 34.4806 17.9276 33.5244 18.4638C32.0255 19.3025 30.2583 19.9056 28.6182 20.391C26.2861 21.0814 23.8855 21.6135 21.5009 22.0826C17.3876 22.8949 12.8929 24.6901 11.1681 28.8674C9.47954 32.9614 9.61672 37.5043 11.8963 41.3404C14.4785 45.6863 19.1346 48.0663 24.1013 48.1476C27.4743 48.2024 30.8897 47.6358 34.0085 46.3239C36.7078 45.1887 39.2194 43.4707 41.0531 41.1536C41.8439 40.1544 40.6073 39.3421 39.9032 40.2316C38.2248 42.3517 35.9109 43.9195 33.4417 44.9592C30.5104 46.1919 27.2928 46.7199 24.1255 46.6692C19.6672 46.596 15.4771 44.4861 13.1572 40.5829C11.1176 37.1489 11.0147 33.0975 12.5257 29.436C14.0408 25.7664 18.2006 24.2413 21.7834 23.5346C24.2123 23.0553 26.6573 22.5131 29.0337 21.8105C30.7828 21.2926 32.6408 20.6509 34.2385 19.7574C35.4469 19.0811 36.4031 18.0068 37.0386 16.7782C38.1945 14.5444 38.3902 11.5348 36.7219 9.49792C35.5316 8.04185 33.2419 7.15644 31.5191 6.55127C30.4519 6.17558 29.8346 7.52604 31.0329 7.94844L31.035 7.94641Z" fill="white"/>
  <path fill-rule="evenodd" clip-rule="evenodd" d="M37.9363 25.8639C37.5571 26.065 37.1717 26.2741 36.8348 26.5381C36.5423 26.7676 36.3245 27.0722 36.3426 27.4621C36.3668 27.9739 36.7844 28.3049 37.1375 28.6217C36.9801 28.7374 36.8046 28.8268 36.619 28.8938C36.5665 28.9121 36.5161 28.9263 36.4637 28.9405C36.2075 29.0096 36.0037 29.1558 35.9371 29.436C35.8443 29.8178 36.0622 30.0189 36.3083 30.226C36.3446 30.2565 36.3789 30.2869 36.4132 30.3194C36.3547 30.3133 36.3043 30.3052 36.268 30.2971C35.8585 30.1976 35.3682 29.9579 35.0495 30.4311C34.7207 30.9185 35.1645 31.3206 35.4267 31.6719C35.6285 31.944 35.7596 32.4416 35.5982 32.7624C35.2855 33.3818 33.6858 33.3554 33.0967 33.4001C29.6611 33.6661 25.5377 34.4053 22.7396 36.5742C20.5124 38.2983 19.1346 41.4013 19.1245 44.214C19.1185 46.2793 19.9657 48.308 21.3295 49.8372C21.852 50.422 22.4531 50.9216 23.1189 51.3318C28.3499 54.5587 37.1395 51.9593 41.3053 47.9221C43.0564 46.2244 44.4786 43.9479 45.566 41.773C46.8712 39.1614 47.8718 36.3325 48.5516 33.4915C48.8058 32.4253 47.553 32.2466 47.3271 33.195C46.6715 35.9406 45.7031 38.6781 44.4423 41.2023C43.4215 43.2453 42.078 45.4141 40.4338 47.0083C38.5254 48.8563 35.7394 50.2007 33.2036 50.8972C30.228 51.7156 26.5121 51.937 23.7785 50.2514C23.2177 49.9042 22.7093 49.4838 22.2696 48.9903C21.1136 47.6967 20.3813 45.9706 20.3874 44.22C20.3954 41.8014 21.5937 39.0659 23.5102 37.5815C26.0884 35.5832 30.0384 34.911 33.1955 34.6673C34.406 34.5739 36.0763 34.6186 36.7239 33.3392C36.9902 32.8132 36.9862 32.1674 36.7945 31.6008C37.2081 31.5744 37.6458 31.4445 37.8637 31.0586C38.0997 30.6403 37.9444 30.1955 37.6761 29.8402C37.668 29.828 37.6579 29.8158 37.6499 29.8056C37.9262 29.6391 38.1744 29.432 38.3862 29.1761C38.5778 28.9446 38.7029 28.6846 38.6162 28.3739C38.5193 28.0287 38.3156 27.9881 38.1038 27.7891C38.0311 27.7221 37.8597 27.5779 37.7285 27.454C38.0069 27.257 38.3277 27.0925 38.6222 26.9362C38.9995 26.7371 39.4574 26.6315 39.5643 26.1381C39.641 25.7867 39.4594 25.4902 39.2012 25.275C37.3916 23.7702 35.6587 22.0664 35.6708 19.5279V18.8943L34.414 18.8882V19.5218C34.3999 22.2776 36.0098 24.1885 37.9404 25.8639H37.9363Z" fill="white"/>
  <defs>
    <linearGradient id="paint0_linear_0_343" x1="39.8548" y1="14.3007" x2="-11.5016" y2="87.3182" gradientUnits="userSpaceOnUse">
      <stop stop-color="#D66EFF"/>
      <stop offset="1" stop-color="#3A2467"/>
    </linearGradient>
  </defs>
</svg>
