<svg preserveAspectRatio="none" width="100%" height="100%" overflow="visible" style="display: block;" viewBox="0 0 180 42.8415" fill="none" xmlns="http://www.w3.org/2000/svg">
<g id="title-label-text">
<path id="Vector" d="M174.364 27.2261C175.861 27.2261 177.126 27.5228 178.157 28.116C179.202 28.6952 179.725 29.5992 179.725 30.8281H175.805C175.805 30.4184 175.621 30.1289 175.254 29.9594C175 29.8181 174.682 29.7475 174.301 29.7475C173.284 29.7475 172.775 29.9876 172.775 30.4679C172.775 30.7362 172.952 30.9269 173.305 31.0399C173.658 31.1529 174.237 31.273 175.042 31.4001C176.031 31.5414 176.857 31.7109 177.521 31.9086C178.185 32.0923 178.764 32.4313 179.258 32.9256C179.753 33.4059 180 34.0839 180 34.9597C180 36.3863 179.463 37.4033 178.39 38.0107C177.33 38.6181 175.939 38.9218 174.216 38.9218C173.227 38.9218 172.295 38.7876 171.419 38.5192C170.543 38.2367 169.83 37.8059 169.279 37.2268C168.728 36.6476 168.453 35.9131 168.453 35.0232H172.372V35.108C172.387 35.5882 172.584 35.9272 172.966 36.125C173.361 36.3086 173.778 36.4004 174.216 36.4004C175.388 36.4004 175.974 36.125 175.974 35.5741C175.974 35.2916 175.791 35.0868 175.423 34.9597C175.056 34.8325 174.456 34.6984 173.623 34.5571C172.62 34.3876 171.793 34.204 171.144 34.0062C170.508 33.8085 169.95 33.4765 169.47 33.0104C168.99 32.5301 168.749 31.8663 168.749 31.0187C168.749 29.6486 169.265 28.674 170.296 28.0948C171.341 27.5157 172.697 27.2261 174.364 27.2261Z" fill="var(--fill-0, #3A2467)"/>
<path id="Vector_2" d="M160.443 27.2261C162.153 27.2261 163.544 27.5157 164.617 28.0948C165.691 28.6598 166.228 29.585 166.228 30.8704V35.2351C166.228 35.4752 166.284 35.673 166.397 35.8284C166.51 35.9837 166.68 36.0614 166.906 36.0614H167.668V38.498C167.626 38.5263 167.513 38.5757 167.329 38.6463C167.16 38.7028 166.913 38.7593 166.588 38.8158C166.263 38.8865 165.889 38.9218 165.465 38.9218C164.646 38.9218 163.968 38.8017 163.431 38.5616C162.908 38.3073 162.548 37.9613 162.35 37.5234C161.814 37.9471 161.213 38.2862 160.549 38.5404C159.885 38.7947 159.109 38.9218 158.219 38.9218C155.591 38.9218 154.278 37.8765 154.278 35.786C154.278 34.6984 154.567 33.872 155.147 33.307C155.74 32.7279 156.587 32.3324 157.689 32.1205C158.791 31.9086 160.232 31.8027 162.011 31.8027V31.2518C162.011 30.8139 161.856 30.482 161.545 30.256C161.249 30.03 160.86 29.917 160.38 29.917C159.942 29.917 159.561 29.9947 159.236 30.15C158.925 30.3054 158.77 30.5526 158.77 30.8916V30.9764H154.617C154.603 30.9057 154.596 30.8069 154.596 30.6797C154.596 29.6204 155.097 28.7799 156.1 28.1584C157.117 27.5369 158.565 27.2261 160.443 27.2261ZM162.011 33.7943C160.811 33.7943 159.921 33.9285 159.342 34.1969C158.777 34.4512 158.494 34.7972 158.494 35.2351C158.494 35.9414 158.974 36.2945 159.935 36.2945C160.486 36.2945 160.966 36.1462 161.376 35.8496C161.799 35.5529 162.011 35.1857 162.011 34.7478V33.7943Z" fill="var(--fill-0, #3A2467)"/>
<path id="Vector_3" d="M151.949 27.205C152.274 27.205 152.563 27.2474 152.817 27.3321C153.072 27.4028 153.199 27.4451 153.199 27.4593V30.9976H151.843C150.967 30.9976 150.331 31.2236 149.936 31.6756C149.555 32.1276 149.364 32.7986 149.364 33.6885V38.6676H145.148V27.4805H148.601L148.877 29.1755C149.131 28.5257 149.533 28.0384 150.084 27.7135C150.635 27.3745 151.257 27.205 151.949 27.205Z" fill="var(--fill-0, #3A2467)"/>
<path id="Vector_4" d="M136.8 27.2261C138.763 27.2261 140.303 27.7276 141.419 28.7305C142.549 29.7192 143.114 31.1671 143.114 33.074C143.114 34.9809 142.549 36.4358 141.419 37.4386C140.303 38.4274 138.763 38.9218 136.8 38.9218C134.836 38.9218 133.297 38.4274 132.181 37.4386C131.065 36.4499 130.507 34.995 130.507 33.074C130.507 31.1529 131.065 29.698 132.181 28.7093C133.297 27.7205 134.836 27.2261 136.8 27.2261ZM136.8 30.0865C135.416 30.0865 134.723 30.8846 134.723 32.4807V33.6884C134.723 35.2704 135.416 36.0614 136.8 36.0614C138.198 36.0614 138.897 35.2704 138.897 33.6884V32.4807C138.897 30.8846 138.198 30.0865 136.8 30.0865Z" fill="var(--fill-0, #3A2467)"/>
<path id="Vector_5" d="M125.019 38.668L124.659 37.0789C123.84 38.3078 122.654 38.9223 121.1 38.9223C119.588 38.9223 118.423 38.4279 117.604 37.4391C116.785 36.4504 116.375 34.9884 116.375 33.0533C116.375 31.1322 116.785 29.6844 117.604 28.7098C118.423 27.721 119.588 27.2266 121.1 27.2266C122.385 27.2266 123.43 27.6575 124.236 28.5191V23.3069H128.452V38.668H125.019ZM122.413 30.3412C121.199 30.3412 120.591 31.0687 120.591 32.5236V33.6465C120.591 35.0873 121.199 35.8077 122.413 35.8077C123.035 35.8077 123.501 35.5887 123.812 35.1509C124.123 34.713 124.278 34.1409 124.278 33.4347V32.7355C124.278 32.0292 124.123 31.4571 123.812 31.0192C123.501 30.5672 123.035 30.3412 122.413 30.3412Z" fill="var(--fill-0, #3A2467)"/>
<path id="Vector_6" d="M108.535 27.2261C110.584 27.2261 112.144 27.7064 113.218 28.6669C114.306 29.6274 114.849 31.0964 114.849 33.074V33.7943H106.459C106.459 34.5995 106.636 35.2069 106.989 35.6165C107.356 36.0261 107.928 36.2309 108.705 36.2309C109.411 36.2309 109.927 36.0826 110.252 35.786C110.591 35.4894 110.76 35.0939 110.76 34.5995H114.849C114.849 35.9555 114.334 37.0149 113.303 37.7776C112.272 38.5404 110.767 38.9218 108.79 38.9218C106.713 38.9218 105.103 38.4415 103.959 37.481C102.815 36.5064 102.243 35.0374 102.243 33.074C102.243 31.1529 102.801 29.698 103.917 28.7093C105.032 27.7205 106.572 27.2261 108.535 27.2261ZM108.705 29.917C107.377 29.917 106.636 30.5456 106.48 31.8027H110.591C110.591 31.2236 110.421 30.7645 110.082 30.4255C109.757 30.0865 109.298 29.917 108.705 29.917Z" fill="var(--fill-0, #3A2467)"/>
<path id="Vector_7" d="M96.756 38.668L96.3958 37.0789C95.5766 38.3078 94.3901 38.9223 92.8363 38.9223C91.3249 38.9223 90.1596 38.4279 89.3404 37.4391C88.5211 36.4504 88.1115 34.9884 88.1115 33.0533C88.1115 31.1322 88.5211 29.6844 89.3404 28.7098C90.1596 27.721 91.3249 27.2266 92.8363 27.2266C94.1217 27.2266 95.167 27.6575 95.9721 28.5191V23.3069H100.188V38.668H96.756ZM94.1499 30.3412C92.9352 30.3412 92.3278 31.0687 92.3278 32.5236V33.6465C92.3278 35.0873 92.9352 35.8077 94.1499 35.8077C94.7715 35.8077 95.2376 35.5887 95.5483 35.1509C95.8591 34.713 96.0145 34.1409 96.0145 33.4347V32.7355C96.0145 32.0292 95.8591 31.4571 95.5483 31.0192C95.2376 30.5672 94.7715 30.3412 94.1499 30.3412Z" fill="var(--fill-0, #3A2467)"/>
<path id="Vector_8" d="M82.2003 27.2261C83.4998 27.2261 84.4744 27.5863 85.1241 28.3067C85.7739 29.0271 86.0988 30.0653 86.0988 31.4213V38.6675H81.8824V31.9298C81.8824 31.4496 81.7553 31.0682 81.5011 30.7857C81.2609 30.4891 80.9149 30.3407 80.4629 30.3407C79.9402 30.3407 79.5165 30.5102 79.1916 30.8492C78.8667 31.1882 78.7043 31.6049 78.7043 32.0993V38.6675H74.488V27.4804H77.9415L78.217 29.1754C78.6549 28.5822 79.2269 28.109 79.9332 27.7558C80.6536 27.4027 81.4093 27.2261 82.2003 27.2261Z" fill="var(--fill-0, #3A2467)"/>
<path id="Vector_9" d="M66.1398 27.2261C68.1879 27.2261 69.7487 27.7064 70.8223 28.6669C71.9099 29.6274 72.4537 31.0964 72.4537 33.074V33.7943H64.0634C64.0634 34.5995 64.24 35.2069 64.5931 35.6165C64.9603 36.0261 65.5324 36.2309 66.3093 36.2309C67.0155 36.2309 67.5311 36.0826 67.856 35.786C68.195 35.4894 68.3645 35.0939 68.3645 34.5995H72.4537C72.4537 35.9555 71.9381 37.0149 70.907 37.7776C69.8759 38.5404 68.3715 38.9218 66.394 38.9218C64.3177 38.9218 62.7074 38.4415 61.5633 37.481C60.4191 36.5064 59.8471 35.0374 59.8471 33.074C59.8471 31.1529 60.405 29.698 61.5209 28.7093C62.6368 27.7205 64.1764 27.2261 66.1398 27.2261ZM66.3093 29.917C64.9815 29.917 64.24 30.5456 64.0846 31.8027H68.195C68.195 31.2236 68.0255 30.7645 67.6865 30.4255C67.3616 30.0865 66.9025 29.917 66.3093 29.917Z" fill="var(--fill-0, #3A2467)"/>
<path id="Vector_10" d="M57.4114 27.205C57.7363 27.205 58.0259 27.2474 58.2801 27.3321C58.5344 27.4028 58.6615 27.4451 58.6615 27.4593V30.9976H57.3055C56.4297 30.9976 55.7941 31.2236 55.3986 31.6756C55.0172 32.1276 54.8265 32.7986 54.8265 33.6885V38.6676H50.6102V27.4805H54.0638L54.3392 29.1755C54.5935 28.5257 54.9961 28.0384 55.5469 27.7135C56.0978 27.3745 56.7193 27.205 57.4114 27.205Z" fill="var(--fill-0, #3A2467)"/>
<path id="Vector_11" d="M43.8512 27.2261C45.3626 27.2261 46.5279 27.7205 47.3472 28.7093C48.1664 29.698 48.5761 31.16 48.5761 33.0951C48.5761 35.0162 48.1664 36.4711 47.3472 37.4598C46.5279 38.4345 45.3626 38.9218 43.8512 38.9218C42.5517 38.9218 41.5065 38.498 40.7155 37.6505V42.8415H36.4991V27.4804H39.9315L40.2917 29.0695C41.111 27.8406 42.2975 27.2261 43.8512 27.2261ZM42.5376 30.3407C41.9161 30.3407 41.45 30.5597 41.1392 30.9976C40.8285 31.4354 40.6731 32.0075 40.6731 32.7138V33.413C40.6731 34.1192 40.8285 34.6984 41.1392 35.1504C41.45 35.5882 41.9161 35.8072 42.5376 35.8072C43.7523 35.8072 44.3597 35.0797 44.3597 33.6248V32.5019C44.3597 31.0611 43.7523 30.3407 42.5376 30.3407Z" fill="var(--fill-0, #3A2467)"/>
<path id="Vector_12" d="M30.143 27.2261C31.4143 27.2261 32.3677 27.5934 33.0033 28.3279C33.639 29.0483 33.9568 30.0794 33.9568 31.4213V38.6675H29.7405V31.9298C29.7405 31.4496 29.6204 31.0682 29.3803 30.7857C29.1543 30.4891 28.8294 30.3407 28.4056 30.3407C27.9113 30.3407 27.5087 30.5102 27.1979 30.8492C26.8872 31.1882 26.7318 31.6049 26.7318 32.0993V38.6675H22.5155V31.9298C22.5155 31.4496 22.3954 31.0682 22.1553 30.7857C21.9293 30.4891 21.6044 30.3407 21.1807 30.3407C20.6863 30.3407 20.2837 30.5102 19.973 30.8492C19.6622 31.1882 19.5068 31.6049 19.5068 32.0993V38.6675H15.2905V27.4804H18.7441L19.0195 29.1542C19.4433 28.561 20.0012 28.0948 20.6933 27.7558C21.3996 27.4027 22.1412 27.2261 22.918 27.2261C24.5989 27.2261 25.7289 27.8688 26.3081 29.1542C26.7459 28.561 27.3039 28.0948 27.9819 27.7558C28.674 27.4027 29.3944 27.2261 30.143 27.2261Z" fill="var(--fill-0, #3A2467)"/>
<path id="Vector_13" d="M0.296569 24.091H12.9032V27.587H4.97903V29.5999H11.7591V32.9475H4.97903V35.1722H13.0515V38.6682H0.296569V24.091Z" fill="var(--fill-0, #3A2467)"/>
<path id="Vector_14" d="M84.5233 3.91989C86.0205 3.91989 87.2847 4.21652 88.3159 4.80977C89.3611 5.38891 89.8838 6.29292 89.8838 7.52181H85.964C85.964 7.11218 85.7804 6.82261 85.4132 6.65311C85.1589 6.51186 84.8411 6.44123 84.4597 6.44123C83.4427 6.44123 82.9342 6.68136 82.9342 7.16162C82.9342 7.42999 83.1108 7.62068 83.4639 7.73368C83.817 7.84669 84.3962 7.96675 85.2013 8.09388C86.19 8.23513 87.0164 8.40463 87.6802 8.60238C88.3441 8.78601 88.9233 9.12502 89.4176 9.6194C89.912 10.0997 90.1592 10.7777 90.1592 11.6534C90.1592 13.0801 89.6224 14.0971 88.5489 14.7045C87.4896 15.3118 86.0982 15.6155 84.375 15.6155C83.3862 15.6155 82.454 15.4813 81.5782 15.213C80.7025 14.9305 79.9891 14.4996 79.4383 13.9205C78.8874 13.3414 78.6119 12.6069 78.6119 11.717H82.5316V11.8017C82.5458 12.282 82.7435 12.621 83.1249 12.8187C83.5204 13.0024 83.9371 13.0942 84.375 13.0942C85.5474 13.0942 86.1335 12.8187 86.1335 12.2679C86.1335 11.9854 85.9499 11.7805 85.5827 11.6534C85.2154 11.5263 84.6151 11.3921 83.7817 11.2509C82.7788 11.0814 81.9525 10.8977 81.3028 10.7C80.6671 10.5022 80.1092 10.1703 79.6289 9.70415C79.1487 9.22389 78.9086 8.56001 78.9086 7.7125C78.9086 6.34236 79.4241 5.36772 80.4553 4.78859C81.5005 4.20945 82.8565 3.91989 84.5233 3.91989Z" fill="var(--fill-0, #3A2467)"/>
<path id="Vector_15" d="M70.8579 3.91989C72.906 3.91989 74.4669 4.40014 75.5404 5.36066C76.628 6.32117 77.1718 7.79019 77.1718 9.76771V10.4881H68.7815C68.7815 11.2932 68.9581 11.9006 69.3112 12.3102C69.6784 12.7199 70.2505 12.9247 71.0274 12.9247C71.7336 12.9247 72.2492 12.7764 72.5741 12.4797C72.9131 12.1831 73.0826 11.7876 73.0826 11.2932H77.1718C77.1718 12.6492 76.6562 13.7086 75.6251 14.4714C74.594 15.2342 73.0897 15.6155 71.1121 15.6155C69.0358 15.6155 67.4255 15.1353 66.2814 14.1748C65.1372 13.2001 64.5652 11.7311 64.5652 9.76771C64.5652 7.84669 65.1231 6.39179 66.239 5.40303C67.3549 4.41427 68.8945 3.91989 70.8579 3.91989ZM71.0274 6.61073C69.6996 6.61073 68.9581 7.2393 68.8027 8.49645H72.9131C72.9131 7.91731 72.7436 7.45824 72.4046 7.11924C72.0797 6.78024 71.6206 6.61073 71.0274 6.61073Z" fill="var(--fill-0, #3A2467)"/>
<path id="Vector_16" d="M62.129 3.89927C62.4539 3.89927 62.7435 3.94164 62.9977 4.02639C63.252 4.09702 63.3791 4.13939 63.3791 4.15352V7.69187H62.0231C61.1474 7.69187 60.5117 7.91788 60.1162 8.36988C59.7348 8.82189 59.5442 9.49283 59.5442 10.3827V15.3618H55.3278V4.17471H58.7814L59.0568 5.86973C59.3111 5.21997 59.7137 4.73265 60.2645 4.40777C60.8154 4.06877 61.4369 3.89927 62.129 3.89927Z" fill="var(--fill-0, #3A2467)"/>
<path id="Vector_17" d="M46.9801 3.91989C49.0283 3.91989 50.5891 4.40014 51.6626 5.36066C52.7502 6.32117 53.2941 7.79019 53.2941 9.76771V10.4881H44.9038C44.9038 11.2932 45.0803 11.9006 45.4334 12.3102C45.8007 12.7199 46.3728 12.9247 47.1496 12.9247C47.8559 12.9247 48.3715 12.7764 48.6963 12.4797C49.0353 12.1831 49.2048 11.7876 49.2048 11.2932H53.2941C53.2941 12.6492 52.7785 13.7086 51.7474 14.4714C50.7162 15.2342 49.2119 15.6155 47.2344 15.6155C45.158 15.6155 43.5478 15.1353 42.4036 14.1748C41.2595 13.2001 40.6874 11.7311 40.6874 9.76771C40.6874 7.84669 41.2454 6.39179 42.3612 5.40303C43.4771 4.41427 45.0168 3.91989 46.9801 3.91989ZM47.1496 6.61073C45.8219 6.61073 45.0803 7.2393 44.9249 8.49645H49.0353C49.0353 7.91731 48.8658 7.45824 48.5268 7.11924C48.202 6.78024 47.7429 6.61073 47.1496 6.61073Z" fill="var(--fill-0, #3A2467)"/>
<path id="Vector_18" d="M34.2883 2.86051V0.000160664H38.5046V2.86051H34.2883ZM38.5046 15.9757C38.5046 17.3318 38.1939 18.3064 37.5723 18.8996C36.965 19.507 35.9833 19.8107 34.6273 19.8107C34.26 19.8107 33.808 19.7754 33.2713 19.7048C32.7345 19.6342 32.3108 19.5423 32 19.4293V16.908H33.1018C33.8928 16.908 34.2883 16.456 34.2883 15.552V4.17415H38.5046V15.9757Z" fill="var(--fill-0, #3A2467)"/>
<path id="Vector_19" d="M28.1231 15.3614L27.8477 13.6663C27.4098 14.2737 26.8307 14.754 26.1103 15.1071C25.404 15.4461 24.6554 15.6156 23.8644 15.6156C22.5649 15.6156 21.5903 15.2554 20.9405 14.535C20.2908 13.8147 19.9659 12.7765 19.9659 11.4204V4.17423H24.1822V10.9119C24.1822 11.3922 24.3023 11.7806 24.5424 12.0773C24.7967 12.3598 25.1498 12.501 25.6018 12.501C26.1244 12.501 26.5482 12.3315 26.873 11.9925C27.1979 11.6535 27.3604 11.2368 27.3604 10.7424V4.17423H31.5767V15.3614H28.1231Z" fill="var(--fill-0, #3A2467)"/>
<path id="Vector_20" d="M12.8185 15.3615V10.1069C12.8185 9.45716 12.8397 8.79328 12.8821 8.11527C12.9386 7.42314 12.9951 6.844 13.0516 6.37787C13.1081 5.91174 13.1434 5.61511 13.1575 5.48799H13.0728L10.3819 15.3615H6.71648L4.00446 5.50917H3.91971C3.93383 5.6363 3.96915 5.93293 4.02565 6.39906C4.09627 6.85107 4.15984 7.42314 4.21634 8.11527C4.27284 8.79328 4.30109 9.45716 4.30109 10.1069V15.3615H0V0.784303H6.61054L8.81405 9.19585H8.8988L11.0811 0.784303H17.4586V15.3615H12.8185Z" fill="var(--fill-0, #3A2467)"/>
</g>
</svg>
