<svg preserveAspectRatio="none" width="100%" height="100%" overflow="visible" style="display: block;" viewBox="0 0 274 65.2141" fill="none" xmlns="http://www.w3.org/2000/svg">
<g id="title-label-text">
<path id="Vector" d="M265.421 41.4443C267.7 41.4443 269.624 41.8958 271.194 42.7989C272.785 43.6805 273.581 45.0565 273.581 46.9272H267.614C267.614 46.3036 267.335 45.8628 266.775 45.6048C266.388 45.3898 265.905 45.2823 265.324 45.2823C263.776 45.2823 263.002 45.6478 263.002 46.3789C263.002 46.7874 263.271 47.0777 263.808 47.2497C264.346 47.4217 265.227 47.6045 266.453 47.798C267.958 48.013 269.216 48.271 270.226 48.572C271.237 48.8515 272.119 49.3676 272.871 50.1201C273.624 50.8512 274 51.8832 274 53.2163C274 55.388 273.183 56.9361 271.549 57.8606C269.936 58.7852 267.818 59.2474 265.195 59.2474C263.69 59.2474 262.271 59.0432 260.938 58.6347C259.605 58.2046 258.519 57.5488 257.68 56.6673C256.842 55.7857 256.423 54.6677 256.423 53.3131H262.389V53.4421C262.411 54.1731 262.712 54.6892 263.292 54.9902C263.894 55.2697 264.529 55.4095 265.195 55.4095C266.98 55.4095 267.872 54.9902 267.872 54.1516C267.872 53.7216 267.593 53.4098 267.034 53.2163C266.474 53.0228 265.561 52.8185 264.292 52.6035C262.765 52.3455 261.508 52.066 260.519 51.765C259.551 51.4639 258.702 50.9587 257.971 50.2491C257.24 49.5181 256.874 48.5075 256.874 47.2174C256.874 45.1318 257.659 43.6482 259.228 42.7667C260.82 41.8851 262.884 41.4443 265.421 41.4443Z" fill="var(--fill-0, #FF88AC)"/>
<path id="Vector_2" d="M244.231 41.4443C246.832 41.4443 248.95 41.8851 250.584 42.7667C252.219 43.6267 253.036 45.035 253.036 46.9917V53.6356C253.036 54.0011 253.122 54.3021 253.294 54.5386C253.466 54.7752 253.724 54.8934 254.068 54.8934H255.229V58.6024C255.164 58.6454 254.992 58.7207 254.713 58.8282C254.455 58.9142 254.078 59.0002 253.584 59.0862C253.089 59.1937 252.52 59.2474 251.875 59.2474C250.627 59.2474 249.595 59.0647 248.778 58.6992C247.983 58.3121 247.434 57.7853 247.133 57.1188C246.316 57.7638 245.403 58.2799 244.392 58.6669C243.381 59.0539 242.199 59.2474 240.844 59.2474C236.845 59.2474 234.845 57.6563 234.845 54.4741C234.845 52.8185 235.286 51.5607 236.168 50.7007C237.071 49.8191 238.361 49.2171 240.038 48.8945C241.715 48.572 243.908 48.4108 246.617 48.4108V47.5722C246.617 46.9057 246.381 46.4004 245.908 46.0564C245.456 45.7123 244.865 45.5403 244.134 45.5403C243.467 45.5403 242.887 45.6586 242.392 45.8951C241.919 46.1316 241.683 46.5079 241.683 47.0239V47.1529H235.361C235.34 47.0454 235.329 46.8949 235.329 46.7014C235.329 45.0888 236.092 43.8095 237.619 42.8634C239.167 41.9173 241.371 41.4443 244.231 41.4443ZM246.617 51.4425C244.79 51.4425 243.435 51.6467 242.554 52.0552C241.694 52.4423 241.264 52.969 241.264 53.6356C241.264 54.7107 241.995 55.2482 243.457 55.2482C244.295 55.2482 245.026 55.0224 245.65 54.5709C246.295 54.1194 246.617 53.5603 246.617 52.8938V51.4425Z" fill="var(--fill-0, #FF88AC)"/>
<path id="Vector_3" d="M231.3 41.4116C231.794 41.4116 232.235 41.4761 232.622 41.6051C233.009 41.7126 233.203 41.7771 233.203 41.7986V47.1847H231.139C229.805 47.1847 228.838 47.5288 228.236 48.2168C227.655 48.9048 227.365 49.9261 227.365 51.2807V58.86H220.947V41.8309H226.204L226.623 44.411C227.01 43.422 227.623 42.6802 228.462 42.1857C229.3 41.6696 230.246 41.4116 231.3 41.4116Z" fill="var(--fill-0, #FF88AC)"/>
<path id="Vector_4" d="M208.24 41.4443C211.229 41.4443 213.573 42.2076 215.271 43.7342C216.991 45.2393 217.851 47.4432 217.851 50.3459C217.851 53.2486 216.991 55.4632 215.271 56.9898C213.573 58.4949 211.229 59.2474 208.24 59.2474C205.252 59.2474 202.908 58.4949 201.209 56.9898C199.511 55.4847 198.661 53.2701 198.661 50.3459C198.661 47.4217 199.511 45.2071 201.209 43.702C202.908 42.1969 205.252 41.4443 208.24 41.4443ZM208.24 45.7983C206.133 45.7983 205.079 47.0132 205.079 49.4428V51.2812C205.079 53.6893 206.133 54.8934 208.24 54.8934C210.369 54.8934 211.433 53.6893 211.433 51.2812V49.4428C211.433 47.0132 210.369 45.7983 208.24 45.7983Z" fill="var(--fill-0, #FF88AC)"/>
<path id="Vector_5" d="M190.308 58.8601L189.759 56.4412C188.512 58.3119 186.706 59.2472 184.341 59.2472C182.04 59.2472 180.266 58.4946 179.019 56.9895C177.772 55.4844 177.149 53.259 177.149 50.3133C177.149 47.3892 177.772 45.1853 179.019 43.7017C180.266 42.1966 182.04 41.444 184.341 41.444C186.298 41.444 187.889 42.0998 189.114 43.4114V35.4774H195.533V58.8601H190.308ZM186.341 46.1851C184.491 46.1851 183.567 47.2924 183.567 49.507V51.2164C183.567 53.4095 184.491 54.5061 186.341 54.5061C187.287 54.5061 187.996 54.1728 188.469 53.5063C188.942 52.8398 189.179 51.969 189.179 50.8939V49.8296C189.179 48.7545 188.942 47.8837 188.469 47.2171C187.996 46.5291 187.287 46.1851 186.341 46.1851Z" fill="var(--fill-0, #FF88AC)"/>
<path id="Vector_6" d="M165.215 41.4443C168.333 41.4443 170.709 42.1754 172.343 43.6375C173.998 45.0995 174.826 47.3357 174.826 50.3459V51.4425H162.054C162.054 52.668 162.323 53.5926 162.861 54.2161C163.42 54.8397 164.291 55.1514 165.473 55.1514C166.548 55.1514 167.333 54.9257 167.828 54.4741C168.344 54.0226 168.602 53.4206 168.602 52.668H174.826C174.826 54.7322 174.041 56.3448 172.472 57.5058C170.902 58.6669 168.612 59.2474 165.602 59.2474C162.441 59.2474 159.99 58.5164 158.249 57.0543C156.507 55.5707 155.636 53.3346 155.636 50.3459C155.636 47.4217 156.485 45.2071 158.184 43.702C159.883 42.1969 162.226 41.4443 165.215 41.4443ZM165.473 45.5403C163.452 45.5403 162.323 46.4971 162.087 48.4108H168.344C168.344 47.5292 168.086 46.8304 167.57 46.3144C167.075 45.7983 166.376 45.5403 165.473 45.5403Z" fill="var(--fill-0, #FF88AC)"/>
<path id="Vector_7" d="M147.284 58.8601L146.736 56.4412C145.489 58.3119 143.683 59.2472 141.317 59.2472C139.017 59.2472 137.243 58.4946 135.996 56.9895C134.749 55.4844 134.125 53.259 134.125 50.3133C134.125 47.3892 134.749 45.1853 135.996 43.7017C137.243 42.1966 139.017 41.444 141.317 41.444C143.274 41.444 144.865 42.0998 146.091 43.4114V35.4774H152.509V58.8601H147.284ZM143.317 46.1851C141.468 46.1851 140.543 47.2924 140.543 49.507V51.2164C140.543 53.4095 141.468 54.5061 143.317 54.5061C144.263 54.5061 144.973 54.1728 145.446 53.5063C145.919 52.8398 146.155 51.969 146.155 50.8939V49.8296C146.155 48.7545 145.919 47.8837 145.446 47.2171C144.973 46.5291 144.263 46.1851 143.317 46.1851Z" fill="var(--fill-0, #FF88AC)"/>
<path id="Vector_8" d="M125.127 41.4443C127.105 41.4443 128.589 41.9926 129.578 43.0892C130.567 44.1857 131.061 45.7661 131.061 47.8302V58.8604H124.643V48.6043C124.643 47.8732 124.45 47.2927 124.063 46.8627C123.697 46.4111 123.17 46.1854 122.482 46.1854C121.687 46.1854 121.042 46.4434 120.547 46.9594C120.053 47.4754 119.805 48.1097 119.805 48.8623V58.8604H113.387V41.8313H118.644L119.063 44.4115C119.73 43.5084 120.601 42.7882 121.676 42.2506C122.772 41.7131 123.923 41.4443 125.127 41.4443Z" fill="var(--fill-0, #FF88AC)"/>
<path id="Vector_9" d="M100.68 41.4443C103.797 41.4443 106.173 42.1754 107.807 43.6375C109.463 45.0995 110.291 47.3357 110.291 50.3459V51.4425H97.519C97.519 52.668 97.7877 53.5926 98.3253 54.2161C98.8843 54.8397 99.7551 55.1514 100.938 55.1514C102.013 55.1514 102.798 54.9257 103.292 54.4741C103.808 54.0226 104.066 53.4206 104.066 52.668H110.291C110.291 54.7322 109.506 56.3448 107.936 57.5058C106.367 58.6669 104.077 59.2474 101.067 59.2474C97.906 59.2474 95.4548 58.5164 93.7132 57.0543C91.9716 55.5707 91.1008 53.3346 91.1008 50.3459C91.1008 47.4217 91.9501 45.2071 93.6487 43.702C95.3473 42.1969 97.691 41.4443 100.68 41.4443ZM100.938 45.5403C98.9166 45.5403 97.7877 46.4971 97.5512 48.4108H103.808C103.808 47.5292 103.55 46.8304 103.034 46.3144C102.54 45.7983 101.841 45.5403 100.938 45.5403Z" fill="var(--fill-0, #FF88AC)"/>
<path id="Vector_10" d="M87.3932 41.4116C87.8878 41.4116 88.3285 41.4761 88.7156 41.6051C89.1026 41.7126 89.2961 41.7771 89.2961 41.7986V47.1847H87.232C85.8989 47.1847 84.9313 47.5288 84.3293 48.2168C83.7487 48.9048 83.4585 49.9261 83.4585 51.2807V58.86H77.0403V41.8309H82.2974L82.7167 44.411C83.1037 43.422 83.7165 42.6802 84.555 42.1857C85.3936 41.6696 86.3397 41.4116 87.3932 41.4116Z" fill="var(--fill-0, #FF88AC)"/>
<path id="Vector_11" d="M66.7512 41.4443C69.0519 41.4443 70.8257 42.1969 72.0728 43.702C73.3199 45.2071 73.9435 47.4324 73.9435 50.3781C73.9435 53.3023 73.3199 55.517 72.0728 57.0221C70.8257 58.5056 69.0519 59.2474 66.7512 59.2474C64.7731 59.2474 63.182 58.6024 61.9779 57.3123V65.2141H55.5597V41.8313H60.7845L61.3328 44.2502C62.5799 42.3796 64.386 41.4443 66.7512 41.4443ZM64.7516 46.1854C63.8055 46.1854 63.0959 46.5186 62.6229 47.1852C62.1499 47.8517 61.9134 48.7225 61.9134 49.7976V50.8619C61.9134 51.937 62.1499 52.8185 62.6229 53.5066C63.0959 54.1731 63.8055 54.5064 64.7516 54.5064C66.6007 54.5064 67.5253 53.3991 67.5253 51.1844V49.4751C67.5253 47.2819 66.6007 46.1854 64.7516 46.1854Z" fill="var(--fill-0, #FF88AC)"/>
<path id="Vector_12" d="M45.8845 41.4443C47.8196 41.4443 49.2709 42.0034 50.2385 43.1214C51.2061 44.218 51.6899 45.7876 51.6899 47.8302V58.8604H45.2717V48.6043C45.2717 47.8732 45.0889 47.2927 44.7234 46.8627C44.3793 46.4111 43.8848 46.1854 43.2398 46.1854C42.4872 46.1854 41.8744 46.4434 41.4014 46.9594C40.9283 47.4754 40.6918 48.1097 40.6918 48.8623V58.8604H34.2736V48.6043C34.2736 47.8732 34.0909 47.2927 33.7253 46.8627C33.3813 46.4111 32.8868 46.1854 32.2417 46.1854C31.4892 46.1854 30.8764 46.4434 30.4034 46.9594C29.9303 47.4754 29.6938 48.1097 29.6938 48.8623V58.8604H23.2756V41.8313H28.5327L28.952 44.3793C29.597 43.4762 30.4464 42.7666 31.4999 42.2506C32.575 41.7131 33.7038 41.4443 34.8864 41.4443C37.4451 41.4443 39.1652 42.4226 40.0468 44.3793C40.7133 43.4762 41.5626 42.7666 42.5947 42.2506C43.6483 41.7131 44.7449 41.4443 45.8845 41.4443Z" fill="var(--fill-0, #FF88AC)"/>
<path id="Vector_13" d="M0.451167 36.6711H19.6413V41.9927H7.57892V45.0566H17.8997V50.1524H7.57892V53.5389H19.867V58.8605H0.451167V36.6711Z" fill="var(--fill-0, #FF88AC)"/>
<path id="Vector_14" d="M128.663 5.96691C130.942 5.96691 132.867 6.41844 134.436 7.3215C136.027 8.20305 136.823 9.57914 136.823 11.4498H130.856C130.856 10.8262 130.577 10.3854 130.018 10.1274C129.631 9.91241 129.147 9.8049 128.566 9.8049C127.018 9.8049 126.244 10.1704 126.244 10.9015C126.244 11.31 126.513 11.6003 127.051 11.7723C127.588 11.9443 128.47 12.1271 129.695 12.3206C131.2 12.5356 132.458 12.7936 133.469 13.0946C134.479 13.3741 135.361 13.8902 136.113 14.6427C136.866 15.3738 137.242 16.4058 137.242 17.7389C137.242 19.9105 136.425 21.4586 134.791 22.3832C133.178 23.3078 131.061 23.77 128.437 23.77C126.932 23.77 125.513 23.5658 124.18 23.1573C122.847 22.7272 121.761 22.0714 120.923 21.1899C120.084 20.3083 119.665 19.1902 119.665 17.8357H125.631V17.9647C125.653 18.6957 125.954 19.2118 126.534 19.5128C127.137 19.7923 127.771 19.932 128.437 19.932C130.222 19.932 131.114 19.5128 131.114 18.6742C131.114 18.2442 130.835 17.9324 130.276 17.7389C129.717 17.5454 128.803 17.3411 127.534 17.1261C126.008 16.8681 124.75 16.5886 123.761 16.2876C122.793 15.9865 121.944 15.4813 121.213 14.7717C120.482 14.0407 120.116 13.0301 120.116 11.74C120.116 9.65439 120.901 8.1708 122.471 7.28924C124.062 6.40769 126.126 5.96691 128.663 5.96691Z" fill="var(--fill-0, #FF88AC)"/>
<path id="Vector_15" d="M107.861 5.96691C110.979 5.96691 113.355 6.69796 114.989 8.16005C116.645 9.62214 117.472 11.8583 117.472 14.8685V15.965H104.7C104.7 17.1906 104.969 18.1152 105.507 18.7387C106.066 19.3623 106.937 19.674 108.119 19.674C109.194 19.674 109.979 19.4483 110.474 18.9967C110.99 18.5452 111.248 17.9432 111.248 17.1906H117.472C117.472 19.2548 116.688 20.8674 115.118 22.0284C113.548 23.1895 111.258 23.77 108.248 23.77C105.087 23.77 102.636 23.039 100.895 21.5769C99.1531 20.0933 98.2823 17.8572 98.2823 14.8685C98.2823 11.9443 99.1316 9.72965 100.83 8.22455C102.529 6.71946 104.872 5.96691 107.861 5.96691ZM108.119 10.0629C106.098 10.0629 104.969 11.0197 104.733 12.9334H110.99C110.99 12.0518 110.732 11.353 110.216 10.837C109.721 10.3209 109.022 10.0629 108.119 10.0629Z" fill="var(--fill-0, #FF88AC)"/>
<path id="Vector_16" d="M94.574 5.93569C95.0685 5.93569 95.5093 6.0002 95.8963 6.12921C96.2834 6.23671 96.4769 6.30122 96.4769 6.32272V11.7088H94.4127C93.0796 11.7088 92.1121 12.0528 91.51 12.7409C90.9295 13.4289 90.6392 14.4502 90.6392 15.8048V23.384H84.221V6.35497H89.4781L89.8974 8.93513C90.2844 7.94607 90.8972 7.20427 91.7358 6.70974C92.5744 6.19371 93.5204 5.93569 94.574 5.93569Z" fill="var(--fill-0, #FF88AC)"/>
<path id="Vector_17" d="M71.5144 5.96691C74.6321 5.96691 77.008 6.69796 78.6421 8.16005C80.2978 9.62214 81.1256 11.8583 81.1256 14.8685V15.965H68.3537C68.3537 17.1906 68.6224 18.1152 69.16 18.7387C69.719 19.3623 70.5898 19.674 71.7724 19.674C72.8475 19.674 73.6323 19.4483 74.1268 18.9967C74.6429 18.5452 74.9009 17.9432 74.9009 17.1906H81.1256C81.1256 19.2548 80.3408 20.8674 78.7711 22.0284C77.2015 23.1895 74.9116 23.77 71.9014 23.77C68.7407 23.77 66.2895 23.039 64.5479 21.5769C62.8063 20.0933 61.9355 17.8572 61.9355 14.8685C61.9355 11.9443 62.7848 9.72965 64.4834 8.22455C66.182 6.71946 68.5257 5.96691 71.5144 5.96691ZM71.7724 10.0629C69.7513 10.0629 68.6224 11.0197 68.3859 12.9334H74.6429C74.6429 12.0518 74.3848 11.353 73.8688 10.837C73.3743 10.3209 72.6755 10.0629 71.7724 10.0629Z" fill="var(--fill-0, #FF88AC)"/>
<path id="Vector_18" d="M52.1944 4.35403V0H58.6126V4.35403H52.1944ZM58.6126 24.318C58.6126 26.3822 58.1396 27.8658 57.1935 28.7688C56.2689 29.6934 54.7746 30.1557 52.7104 30.1557C52.1514 30.1557 51.4633 30.1019 50.6463 29.9944C49.8292 29.8869 49.1842 29.7471 48.7111 29.5751V25.7371H50.3883C51.5923 25.7371 52.1944 25.0491 52.1944 23.673V6.35365H58.6126V24.318Z" fill="var(--fill-0, #FF88AC)"/>
<path id="Vector_19" d="M42.8096 23.3825L42.3903 20.8023C41.7237 21.7269 40.8422 22.4579 39.7456 22.9955C38.6705 23.5115 37.5309 23.7695 36.3269 23.7695C34.3487 23.7695 32.8651 23.2212 31.876 22.1247C30.887 21.0281 30.3924 19.4477 30.3924 17.3836V6.35341H36.8106V16.6096C36.8106 17.3406 36.9934 17.9319 37.3589 18.3834C37.746 18.8134 38.2835 19.0285 38.9715 19.0285C39.7671 19.0285 40.4121 18.7704 40.9067 18.2544C41.4012 17.7384 41.6485 17.1041 41.6485 16.3515V6.35341H48.0667V23.3825H42.8096Z" fill="var(--fill-0, #FF88AC)"/>
<path id="Vector_20" d="M19.5126 23.3831V15.3846C19.5126 14.3955 19.5449 13.385 19.6094 12.3529C19.6954 11.2993 19.7814 10.4178 19.8674 9.70822C19.9534 8.99868 20.0072 8.54715 20.0287 8.35363H19.8997L15.8036 23.3831H10.224L6.09568 8.38589H5.96667C5.98818 8.5794 6.04193 9.03093 6.12794 9.74047C6.23544 10.4285 6.3322 11.2993 6.41821 12.3529C6.50421 13.385 6.54722 14.3955 6.54722 15.3846V23.3831H0V1.19368H10.0627L13.417 13.9977H13.546L16.8679 1.19368H26.5759V23.3831H19.5126Z" fill="var(--fill-0, #FF88AC)"/>
</g>
</svg>
